<svg xmlns="http://www.w3.org/2000/svg" xmlns:xlink="http://www.w3.org/1999/xlink" width="693.02" height="515.63" viewBox="0 0 693.02 515.63">
  <defs>
    <linearGradient id="linear-gradient" x1="0.5" y1="1" x2="0.5" gradientUnits="objectBoundingBox">
      <stop offset="0" stop-color="gray" stop-opacity="0.251"/>
      <stop offset="0.54" stop-color="gray" stop-opacity="0.122"/>
      <stop offset="1" stop-color="gray" stop-opacity="0.102"/>
    </linearGradient>
    <linearGradient id="linear-gradient-2" y2="0" xlink:href="#linear-gradient"/>
  </defs>
  <g id="undraw_time_management_30iu" transform="translate(-0.007 -0.004)">
    <path id="Path_1" data-name="Path 1" d="M150.785,115.491c-4.313,1.789-8.74,4.086-11.11,8.112-2.51,4.253-2.21,9.534-1.743,14.455,4.073,42.676,14.8,88.063-3.726,126.72-8.993,18.754-24.036,33.783-36,50.815s-21,38.3-15.443,58.333c6.783,24.483,32.1,38.056,49.166,56.9,11.17,12.318,19,27.287,29.423,40.246s24.7,24.376,41.341,25.137c23.929,1.1,43.4-19.562,66.859-24.349,24.035-4.9,48.238,7.571,67.727,22.5S374.5,527.373,397.2,536.693c25.077,10.3,53.346,8.726,79.745,14.915,24.035,5.642,46.162,17.639,70.023,24.036s51.83,6.009,70.317-10.329c24.1-21.365,22.2-59.421,37.589-87.683,14.294-26.259,42.276-41.935,61.11-65.15,33.89-41.782,32.782-105.643,4.006-151.083s-80.9-72.954-134.2-80.118c-24.036-3.225-48.785-2.784-71.893-10.122C452.05,151.531,415.243,81.2,352.1,66.565c-40.139-9.287-79.177,6.8-113.367,26.593C209.051,110.343,181.671,102.679,150.785,115.491Z" transform="translate(-81.08 -63.86)" fill="#032a4e" opacity="0.1"/>
    <path id="Path_2" data-name="Path 2" d="M232.9,347.69S210.11,369.2,185.654,369.836A47.464,47.464,0,0,0,157.366,379.9a79.834,79.834,0,0,0-10.576,10.062" transform="translate(-102.916 -158.189)" fill="none" stroke="#535461" stroke-miterlimit="10" stroke-width="2"/>
    <path id="Path_3" data-name="Path 3" d="M121.676,411.331c3.285-1.669,15.823-.561,15.823-.561s-6.5,10.783-9.788,12.452a6.677,6.677,0,1,1-6.009-11.891Z" transform="translate(-93.225 -179.033)" fill="#032a4e"/>
    <path id="Path_4" data-name="Path 4" d="M139.938,383.234c3.665.387,13.587,8.132,13.587,8.132s-11.35,5.515-14.982,5.134a6.677,6.677,0,0,1,1.4-13.266Z" transform="translate(-98.288 -169.998)" fill="#032a4e"/>
    <path id="Path_5" data-name="Path 5" d="M185.173,359.672c2.964,2.183,7.625,13.881,7.625,13.881s-12.559-.955-15.523-3.131a6.677,6.677,0,0,1,7.9-10.749Z" transform="translate(-112.223 -161.798)" fill="#032a4e"/>
    <path id="Path_6" data-name="Path 6" d="M224.765,350.386c3.292,1.649,9.861,12.392,9.861,12.392s-12.539,1.182-15.83-.467a6.677,6.677,0,1,1,5.969-11.924Z" transform="translate(-125.516 -158.795)" fill="#032a4e"/>
    <path id="Path_7" data-name="Path 7" d="M167.719,405.817c1.095-3.519-2.11-15.7-2.11-15.7s-9.534,8.225-10.629,11.744a6.677,6.677,0,1,0,12.739,3.953Z" transform="translate(-105.505 -172.29)" fill="#032a4e"/>
    <path id="Path_8" data-name="Path 8" d="M213.55,394.861c0-3.685-6.71-14.341-6.71-14.341S200.2,391.2,200.21,394.9a6.677,6.677,0,1,0,13.353-.04Z" transform="translate(-120.67 -169.1)" fill="#032a4e"/>
    <path id="Path_9" data-name="Path 9" d="M256.709,377.039c.614-3.632-4.193-15.269-4.193-15.269s-8.352,9.427-8.96,13.059a6.677,6.677,0,0,0,13.153,2.217Z" transform="translate(-135.06 -162.868)" fill="#032a4e"/>
    <path id="Path_10" data-name="Path 10" d="M286.9,228.072S259.448,213,251.289,189.9a47.463,47.463,0,0,0-18.274-23.829,79.832,79.832,0,0,0-12.846-6.944" transform="translate(-127.304 -95.521)" fill="none" stroke="#535461" stroke-miterlimit="10" stroke-width="2"/>
    <path id="Path_11" data-name="Path 11" d="M206.807,136.512c2.6,2.611,5.395,14.889,5.395,14.889s-12.258-2.871-14.855-5.488a6.677,6.677,0,0,1,9.461-9.4Z" transform="translate(-119.148 -87.425)" fill="#032a4e"/>
    <path id="Path_12" data-name="Path 12" d="M239.02,144.62c.761,3.605-3.559,15.429-3.559,15.429s-8.726-9.073-9.487-12.685a6.677,6.677,0,1,1,13.053-2.751Z" transform="translate(-129.162 -88.836)" fill="#032a4e"/>
    <path id="Path_13" data-name="Path 13" d="M275.487,180.624c-1.162,3.492-10.863,11.524-10.863,11.524s-2.951-12.238-1.789-15.737a6.683,6.683,0,1,1,12.685,4.213Z" transform="translate(-141.394 -99.743)" fill="#032a4e"/>
    <path id="Path_14" data-name="Path 14" d="M296.415,215.566c-.554,3.639-8.76,13.193-8.76,13.193s-4.981-11.564-4.427-15.2a6.677,6.677,0,1,1,13.186,2Z" transform="translate(-148.247 -111.617)" fill="#032a4e"/>
    <path id="Path_15" data-name="Path 15" d="M222.8,179.43c3.685-.04,14.288-6.837,14.288-6.837s-10.756-6.543-14.441-6.5a6.677,6.677,0,0,0,.154,13.353Z" transform="translate(-125.933 -97.834)" fill="#032a4e"/>
    <path id="Path_16" data-name="Path 16" d="M246.848,219.771c3.5-1.142,11.584-10.8,11.584-10.8s-12.225-3.024-15.723-1.883a6.677,6.677,0,1,0,4.139,12.685Z" transform="translate(-133.184 -111.376)" fill="#032a4e"/>
    <path id="Path_17" data-name="Path 17" d="M277.177,255.283c3.645-.534,13.246-8.679,13.246-8.679s-11.537-5.047-15.176-4.513a6.677,6.677,0,1,0,1.936,13.2Z" transform="translate(-143.617 -123.08)" fill="#032a4e"/>
    <circle id="Ellipse_9" data-name="Ellipse 9" cx="241.69" cy="241.69" r="241.69" transform="translate(106.787 14.964)" fill="url(#linear-gradient)"/>
    <circle id="Ellipse_10" data-name="Ellipse 10" cx="237.684" cy="237.684" r="237.684" transform="translate(110.793 18.97)" fill="#032a4e"/>
    <circle id="Ellipse_11" data-name="Ellipse 11" cx="188.946" cy="188.946" r="188.946" transform="translate(159.531 67.708)" fill="#dde1ec"/>
    <rect id="Rectangle_46" data-name="Rectangle 46" width="10.682" height="166.913" transform="translate(343.136 101.091)" fill="#535461" opacity="0.3"/>
    <g id="Group_11" data-name="Group 11" transform="translate(247.101 202.689)" opacity="0.1">
      <rect id="Rectangle_47" data-name="Rectangle 47" width="150.89" height="13.353" transform="translate(112.726 49.959)"/>
      <rect id="Rectangle_48" data-name="Rectangle 48" width="13.353" height="107.172" transform="translate(0 11.829) rotate(-62.36)"/>
      <circle id="Ellipse_12" data-name="Ellipse 12" cx="20.03" cy="20.03" r="20.03" transform="translate(81.346 36.606)"/>
    </g>
    <rect id="Rectangle_49" data-name="Rectangle 49" width="150.89" height="13.353" transform="translate(359.827 249.977)" fill="#535461"/>
    <rect id="Rectangle_50" data-name="Rectangle 50" width="107.172" height="13.353" transform="translate(253.343 200.034) rotate(27.64)" fill="#535461"/>
    <circle id="Ellipse_13" data-name="Ellipse 13" cx="20.03" cy="20.03" r="20.03" transform="translate(328.448 236.624)" fill="#535461"/>
    <g id="Group_12" data-name="Group 12" transform="translate(159.518 67.708)" opacity="0.1">
      <path id="Path_18" data-name="Path 18" d="M334.688,376.916c0-104.354,84.592-188.946,188.946-188.946a188.652,188.652,0,0,1,151,75.338A188.894,188.894,0,0,0,508.946,165.27C404.592,165.27,320,249.862,320,354.216a188.1,188.1,0,0,0,37.969,113.608,188.085,188.085,0,0,1-23.281-90.908Z" transform="translate(-320 -165.27)"/>
    </g>
    <path id="Path_19" data-name="Path 19" d="M787.207,219.873c-2.243-2.157-21.125,12.018-21.125,12.018s-6.723,1.229-5.121,5.842-7.044,30.452-7.044,30.452l-3.519-4.921a21.122,21.122,0,0,0-2.8-12.418c-.127-.207-.254-.407-.381-.594l.614-.214c-.234-3.151-5.275-7.952-7.952-10.3v-1.015c.167-3.766,1.676-7.738,0-11.15-1.9-3.892-7.444-5.849-7.912-10.122-.28-2.55,1.442-4.854,2.2-7.311,1.816-5.875-1.956-11.871-5.562-16.932a23.682,23.682,0,0,0-4.413-5.087,21.416,21.416,0,0,0-5.3-2.831c-5.281-2.136-10.683-3.211-16.131-4.674-5.228-1.389-10.048-2.05-15.356-.307a7.551,7.551,0,0,0-3.338,1.916c-1.262,1.415-1.429,3.432-2.257,5.121-1.335,2.717-4.213,4.34-6.757,6.082s-5.094,4.133-5.107,7.137c0,4.266,4.874,6.95,6.5,10.923,1.522,3.7,0,7.818-.848,11.717a7.871,7.871,0,0,0-.1,3.866,8.305,8.305,0,0,0,1.5,2.6c1.008,1.335,2.09,2.577,3.165,3.846l-.494.194c-8.96-.921-14.722,10.455-14.722,10.455.414.087.808.187,1.2.3l-.381.494a48.576,48.576,0,0,0-6.576,11.5l-7.344,9.841s-1.6-24.61,2.243-30.145-3.519-8.92-3.519-8.92-16.024-17.84-18.247-16.3,5.441,20.918,12.165,24c0,0,.668,6.149-.668,10.148-.808,2.53-5.121,29.223-5.121,29.223s-3.839,22.453,13.767,11.35c11.437-7.2,18.828-19.589,22.593-27.374q.394-.821.741-1.569a18.792,18.792,0,0,1,.354,2.5l.668,25.725a39.044,39.044,0,0,1-4.046,18.374l-7.845,15.91.875.267-.527.761c-5.168,7.6-13.954,24.7,4.133,33.416l24.036,3.078-1.282,6.149s-9.921,18.761-12.805,31.68a94.944,94.944,0,0,1-8.326,22.76l.741.394c-.154.174-.314.354-.467.541a11.6,11.6,0,0,0-2.777,5.822l-3.258,4.62s-1.282,19.068,1.282,23.688c1.4,2.524,6.056,4.126,10.015,5.061,5.875,1.4,10.616-4.674,7.5-9.674l-.04-.067h-.06c-.668-3.1-2.711-12.739-2.043-16.4.187-1.042.361-2.076.447-3.131a11.067,11.067,0,0,1,1.242-3.959c.107-.207.22-.407.334-.607l.347.147c1.075.461,2.137.895,3.145,1.275-1.562,1.422-2.671,4.367-1.335,10.422,0,0,.127,15.149,1.282,17.533s14.081,5.535,16.324,3.078-1.442-10.923-1.442-10.923l-.114.08c-.741-4.907-1.656-13.694.594-17.152.908-1.4,1.789-2.838,2.577-4.186l.488-.835h0c4.18,2.083,8.6,3.652,11.016,2.564,0,0,10.562-24.61,9.921-27.681s16.324-37.836,16.324-37.836,14.4-16.024-3.2-27.067c-5.588-3.518-9.661-5.882-12.619-7.478l-2.477-12.952a47.352,47.352,0,0,1,.668-20.47l2.671-10.188h0l.22-.868s6.723-13.84,6.4-20.3a4.676,4.676,0,0,1,.167-1.489q.11.461.24.961a124.107,124.107,0,0,0,6.957,19.6c5.107,11.524,12.685,10.609,16.838,8.973a5.748,5.748,0,0,0,3.545-4.153c1.5-7.171,5.6-27.26,5.862-32.808a93.334,93.334,0,0,1,1.6-12.919C780.49,232.793,789.45,222.03,787.207,219.873Z" transform="translate(-264.152 -102.211)" fill="url(#linear-gradient-2)"/>
    <path id="Path_20" data-name="Path 20" d="M736.97,533.638s-1.409,2.824-3.338,6.216c-.754,1.335-1.6,2.771-2.457,4.153-3.051,4.88,0,20.43,0,20.43l-6.677.915-6.677-3.338L716.6,550.73v-8.252l7.611-8.513,3.338-3.685Z" transform="translate(-292.291 -218.872)" fill="#f8bdc5"/>
    <g id="Group_13" data-name="Group 13" transform="translate(431.907 311.408)" opacity="0.1">
      <path id="Path_21" data-name="Path 21" d="M740.752,533.638s-1.409,2.824-3.338,6.216a82.7,82.7,0,0,1-8.533-5.248l-.587-.414-.314-.227,3.338-3.685Z" transform="translate(-727.98 -530.28)"/>
    </g>
    <path id="Path_22" data-name="Path 22" d="M768.974,428.324s-16.164,34.458-15.55,37.509-9.454,27.447-9.454,27.447c-2.3,1.082-6.516-.474-10.5-2.537A82.256,82.256,0,0,1,724.8,485.4l-.588-.414-.354-.254,26.533-73.5L726.911,394.02l-1.736-1.275L714.68,385l32.047,5.8s1.115-.14,7.01,3.158c2.831,1.582,6.763,3.952,12.2,7.518C782.687,412.467,768.974,428.324,768.974,428.324Z" transform="translate(-291.653 -170.589)" fill="#5e52ad"/>
    <g id="Group_14" data-name="Group 14" transform="translate(423.027 214.412)" opacity="0.03">
      <path id="Path_23" data-name="Path 23" d="M768.974,428.324s-16.164,34.458-15.55,37.509-9.454,27.447-9.454,27.447c-2.3,1.082-6.516-.474-10.5-2.537A82.256,82.256,0,0,1,724.8,485.4l-.588-.414-.354-.254,26.533-73.5L726.911,394.02l-1.736-1.275L714.68,385l32.047,5.8s1.115-.14,7.01,3.158c2.831,1.582,6.763,3.952,12.2,7.518C782.687,412.467,768.974,428.324,768.974,428.324Z" transform="translate(-714.68 -385)"/>
    </g>
    <path id="Path_24" data-name="Path 24" d="M719.583,544.424s-7.932-1.222-5.181,11.59c0,0,.12,15.022,1.222,17.359s13.42,5.488,15.55,3.051S729.8,565.6,729.8,565.6s-8.993,6.556-11.437-.461S719.583,544.424,719.583,544.424Z" transform="translate(-291.368 -223.562)" fill="#5d3e53"/>
    <path id="Path_25" data-name="Path 25" d="M705.114,537.759a9.615,9.615,0,0,0-2.076,2.884,11.3,11.3,0,0,0-1.182,3.926c-.08,1.042-.247,2.076-.421,3.1-.761,4.346,2.156,17.225,2.156,17.225L692,566.729l-4.266-4.573-.915-10.062a36.459,36.459,0,0,0,1.829-10.682,11.194,11.194,0,0,1,2.671-6.677,18.355,18.355,0,0,1,3.091-3.065S707.557,535.623,705.114,537.759Z" transform="translate(-282.394 -219.334)" fill="#f8bdc5"/>
    <g id="Group_15" data-name="Group 15" transform="translate(408.953 312.323)" opacity="0.1">
      <path id="Path_26" data-name="Path 26" d="M707.367,537.752a9.613,9.613,0,0,0-2.076,2.884c-4.747-2.143-9.734-4.847-11.55-5.849l-.14-.073a18.359,18.359,0,0,1,3.091-3.065S709.811,535.616,707.367,537.752Z" transform="translate(-693.6 -531.65)"/>
    </g>
    <path id="Path_27" data-name="Path 27" d="M738.84,419.177s-7.618,14.335-12.505,26.225c-3.2,7.812-9.828,26.412-14.021,38.256l-.614,1.749c-1.843,5.241-3.071,8.786-3.071,8.786a7.941,7.941,0,0,1-2.4-.354c-.721-.194-1.529-.454-2.39-.774l-.968-.367c-.961-.374-2-.808-3-1.262-4.847-2.163-10.015-4.981-11.891-6.009l-.708-.394a96.466,96.466,0,0,0,7.952-22.587c2.744-12.805,12.2-31.38,12.2-31.38l1.222-6.1-22.874-3.051c-17.232-8.613-8.86-25.591-3.939-33.129A44.511,44.511,0,0,1,684.553,385l18.3,4.006s2.884.921,9.294,3.759l2.944,1.335c3.592,1.649,8.012,3.772,13.353,6.5C746.458,409.7,738.84,419.177,738.84,419.177Z" transform="translate(-278.604 -170.589)" fill="#5e52ad"/>
    <path id="Path_28" data-name="Path 28" d="M702.716,568.3a6.476,6.476,0,0,1-7.144,9.587c-3.745-.928-8.185-2.517-9.521-5.021-2.437-4.573-1.222-23.481-1.222-23.481l3.2-4.727s-1.676,20.891,2.29,22.7,12.352.848,12.352.848Z" transform="translate(-281.631 -223.651)" fill="#5d3e53"/>
    <path id="Path_29" data-name="Path 29" d="M708.338,182.342a7.13,7.13,0,0,0-3.2,1.9c-1.2,1.4-1.335,3.4-2.15,5.081-1.269,2.671-4.006,4.306-6.436,6.009s-4.854,4.1-4.867,7.077c0,4.233,4.674,6.89,6.2,10.823,1.449,3.672,0,7.751-.808,11.617a8.111,8.111,0,0,0-.094,3.832,8.326,8.326,0,0,0,1.429,2.584c2.944,4.006,6.6,7.558,8.573,12.118,1.5,3.465,1.91,7.291,2.3,11.05.568,5.408,1.135,10.916.107,16.257a1.643,1.643,0,0,0,0,.981,1.522,1.522,0,0,0,.781.668,16.024,16.024,0,0,0,21.692-8.012c1.335-3.024,1.849-6.677,4.493-8.639a2.251,2.251,0,0,1,1.075-.487,3.145,3.145,0,0,1,1.736.581c3.432,1.856,7.591,1.91,11.417,1.148,2.31-.461,4.674-1.282,6.2-3.085,3.011-3.579,1.335-8.926,1.536-13.593.16-3.732,1.6-7.671,0-11.05-1.8-3.859-7.1-5.8-7.538-10.015-.267-2.524,1.375-4.814,2.1-7.244,1.729-5.829-1.863-11.771-5.294-16.785a23.239,23.239,0,0,0-4.2-5.041,20.159,20.159,0,0,0-5.047-2.8c-5.027-2.116-10.155-3.185-15.356-4.627C718.006,181.267,713.419,180.606,708.338,182.342Z" transform="translate(-284.009 -102.89)" fill="#85555c"/>
    <path id="Path_30" data-name="Path 30" d="M744.8,286.724H727.109V258.055a53.405,53.405,0,0,0,.921-8.346v-2.871c-.167-3.418-.875-6.83-2.731-8.913-4.88-5.488,15.857-4.573,15.857-4.573a51.609,51.609,0,0,0,2.47,7.384,44.9,44.9,0,0,0,5.942,10.462,24.21,24.21,0,0,0,8.059,6.857C769.806,264.157,744.8,286.724,744.8,286.724Z" transform="translate(-294.935 -120.17)" fill="#f8bdc5"/>
    <g id="Group_16" data-name="Group 16" transform="translate(429.601 113.125)" opacity="0.1">
      <path id="Path_31" data-name="Path 31" d="M743.6,240.736a16.191,16.191,0,0,1-15.6,6.1c-.167-3.418-.875-6.83-2.731-8.913-4.881-5.488,15.857-4.573,15.857-4.573a51.6,51.6,0,0,0,2.47,7.384Z" transform="translate(-724.526 -233.294)"/>
    </g>
    <circle id="Ellipse_14" data-name="Ellipse 14" cx="16.164" cy="16.164" r="16.164" transform="translate(419.669 93.673)" fill="#f8bdc5"/>
    <path id="Path_32" data-name="Path 32" d="M817.188,260.408a96.064,96.064,0,0,0-1.522,12.806c-.247,5.495-4.159,25.418-5.588,32.528a5.641,5.641,0,0,1-3.378,4.119c-3.966,1.622-11.177,2.53-16.024-8.893a126.427,126.427,0,0,1-6.63-19.429,52.518,52.518,0,0,1-1.335-6.8l10.682-5.8a13.156,13.156,0,0,1,2.524,3.238,21.658,21.658,0,0,1,2.671,12.312l3.338,4.88s8.232-25.618,6.677-30.191,4.881-5.8,4.881-5.8,17.993-14.021,20.13-11.891S827.249,254.306,817.188,260.408Z" transform="translate(-314.262 -122.824)" fill="#f8bdc5"/>
    <path id="Path_33" data-name="Path 33" d="M681.364,268.269a72.1,72.1,0,0,1-2.871,7.01c-3.592,7.725-10.629,20.03-21.525,27.147-16.771,10.976-13.113-11.283-13.113-11.283s4.106-26.466,4.881-28.969c1.222-3.966.608-10.062.608-10.062-6.4-3.051-13.72-22.26-11.59-23.788s17.359,16.164,17.359,16.164,7.017,3.338,3.338,8.846-2.136,29.884-2.136,29.884l7.057-9.741a48.663,48.663,0,0,1,6.269-11.4c1.335-1.823,2.27-2.924,2.27-2.924Z" transform="translate(-265.961 -118.486)" fill="#f8bdc5"/>
    <g id="Group_17" data-name="Group 17" transform="translate(468.434 146.117)" opacity="0.1">
      <path id="Path_34" data-name="Path 34" d="M795.916,285.955c-2.243.828-10.929,4.333-11.891,9.347a52.506,52.506,0,0,1-1.335-6.8l10.682-5.8a13.16,13.16,0,0,1,2.544,3.245Z" transform="translate(-782.69 -282.71)"/>
    </g>
    <g id="Group_18" data-name="Group 18" transform="translate(403.679 140.643)" opacity="0.1">
      <path id="Path_35" data-name="Path 35" d="M697.424,283.65a72.1,72.1,0,0,1-2.871,7.01c-.414-3.018-2.116-10.736-8.853-13.226,1.335-1.823,2.27-2.924,2.27-2.924Z" transform="translate(-685.7 -274.51)"/>
    </g>
    <g id="Group_19" data-name="Group 19" transform="translate(432.174 129.539)" opacity="0.1">
      <path id="Path_36" data-name="Path 36" d="M746.073,294.895H728.38V266.226a53.42,53.42,0,0,0,.921-8.346c3.639,3.512,2.737,8.953,2.737,8.953l9.454,21.365,4.58-18.888-1.522-2.437,6.276-7.464a24.21,24.21,0,0,0,8.059,6.857C771.076,272.328,746.073,294.895,746.073,294.895Z" transform="translate(-728.38 -257.88)"/>
    </g>
    <g id="Group_20" data-name="Group 20" transform="translate(403.225 214.412)" opacity="0.1">
      <path id="Path_37" data-name="Path 37" d="M744.161,395.682s-13.861-1.1-25.885-1.622l-1.208-.053c-1.709-.067-3.338-.12-4.934-.16-11.671-.28-24.87-4.36-27.113-5.074A44.518,44.518,0,0,1,687.744,385l18.3,4.006s2.884.921,9.294,3.759L704.823,385l32.047,5.8s1.115-.14,7.01,3.158Z" transform="translate(-685.02 -385)"/>
    </g>
    <path id="Path_38" data-name="Path 38" d="M731.5,270.485l-1.522-2.437,6.77-8.1s13.961,6.844,17.619,5.341c0,0,8.846,7.344,9.147,11.59,0,0-12.806,4.266-12.505,10.682s-6.076,20.123-6.076,20.123l-2.671,10.963a48.8,48.8,0,0,0-.668,20.3l2.437,13.573S724.816,351,711.984,350.69s-27.447-5.181-27.447-5.181l7.484-15.75a40.059,40.059,0,0,0,3.859-18.214l-.668-25.5s-.608-12.806-10.682-14.942c0,0,5.488-11.283,14.021-10.369,0,0,12.432-5.188,16.124-1.682s2.784,9,2.784,9l9.454,21.365Z" transform="translate(-281.633 -128.327)" fill="#ed677b"/>
    <g id="Group_21" data-name="Group 21" transform="translate(419.644 86.556)" opacity="0.1">
      <path id="Path_39" data-name="Path 39" d="M714.138,213.45c2.45,0,4.373-2.6,6.823-2.464a6.95,6.95,0,0,1,3.405,1.6,41.561,41.561,0,0,0,13.026,6.009,11.362,11.362,0,0,0,5.542.4,4.725,4.725,0,0,0,3.726-3.732,6.365,6.365,0,0,0-.32-2.424,29.958,29.958,0,0,0-13.046-17.219c-2.537-1.556-5.635-2.744-8.446-1.769-2.537.875-4.173,3.251-6.009,5.208a22.834,22.834,0,0,1-4.673,3.792c-1.335.808-3.338,1.335-4.106,2.817C708.61,208.436,710.886,213.423,714.138,213.45Z" transform="translate(-709.613 -193.5)"/>
    </g>
    <path id="Path_40" data-name="Path 40" d="M714.138,212.54c2.45,0,4.373-2.6,6.823-2.464a6.95,6.95,0,0,1,3.405,1.6,41.561,41.561,0,0,0,13.026,6.009,11.363,11.363,0,0,0,5.542.4,4.725,4.725,0,0,0,3.726-3.732,6.366,6.366,0,0,0-.32-2.424,29.958,29.958,0,0,0-13.046-17.219c-2.537-1.556-5.635-2.744-8.446-1.769-2.537.875-4.173,3.251-6.009,5.208a22.838,22.838,0,0,1-4.673,3.792c-1.335.808-3.338,1.335-4.106,2.818C708.61,207.552,710.886,212.506,714.138,212.54Z" transform="translate(-289.969 -106.642)" fill="#85555c"/>
    <path id="Path_41" data-name="Path 41" d="M705.32,326.79s14.942,5.488,24.7,1.222l4.881.307s8.112,5.688,16.691,3.145" transform="translate(-288.542 -151.243)" opacity="0.05"/>
    <path id="Path_42" data-name="Path 42" d="M810.513,313.09s-2.437,5.8-1.222,7.625" transform="translate(-322.984 -146.689)" opacity="0.05"/>
    <path id="Path_43" data-name="Path 43" d="M665.58,310.35s1.222,5.8,0,7.625" transform="translate(-275.335 -145.779)" opacity="0.05"/>
    <path id="Path_44" data-name="Path 44" d="M1024.891,508.14s-27.935,27.935-12.164,69.383S985.7,687.9,985.7,687.9s.461-.067,1.335-.214c57.371-10.128,85.873-75.738,53.973-124.484C1029.118,545.075,1019.383,523.817,1024.891,508.14Z" transform="translate(-381.726 -211.514)" fill="#032a4e"/>
    <path id="Path_45" data-name="Path 45" d="M1024.891,508.84s-27.935,27.935-12.164,69.383S985.7,688.592,985.7,688.592s.461-.067,1.335-.214c57.371-10.128,85.873-75.739,53.973-124.484C1029.118,545.775,1019.383,524.517,1024.891,508.84Z" transform="translate(-381.726 -211.746)" opacity="0.1"/>
    <path id="Path_46" data-name="Path 46" d="M1024.888,508.14s-15.77,34.237,0,62.172,2.671,106.324-39.2,117.587" transform="translate(-381.722 -211.514)" fill="none" stroke="#535461" stroke-miterlimit="10" stroke-width="1"/>
    <path id="Path_47" data-name="Path 47" d="M1071.089,677.186s-31.874-5.074-34.778,23.488S975,733.2,975,733.2l1.1.728c48.2,31.647,94.293,20.156,87.342-21.866C1060.874,696.442,1061.087,680.752,1071.089,677.186Z" transform="translate(-378.169 -267.58)" fill="#032a4e"/>
    <path id="Path_48" data-name="Path 48" d="M1071.1,677.36s-24.743,5.428-22.7,27.928-36.721,49.466-73.362,28.088" transform="translate(-378.183 -267.754)" fill="none" stroke="#535461" stroke-miterlimit="10" stroke-width="1"/>
    <path id="Path_49" data-name="Path 49" d="M1027.858,750.54s-25.1-5.021-31.8-11.717-36.821-18.407-40.166-10.015-45.187,36.821-16.738,41.842,66.946,6.677,75.311,3.338S1027.858,750.54,1027.858,750.54Z" transform="translate(-362.98 -283.882)" fill="#a8a8a8"/>
    <path id="Path_50" data-name="Path 50" d="M939.157,779.7c28.455,5.021,66.945,6.677,75.311,3.338,6.376-2.55,10.8-14.8,12.552-20.5l.835.174s-5.021,20.083-13.386,23.428-46.863,1.676-75.311-3.338c-8.212-1.449-10.562-4.854-9.674-9.16C930.177,776.454,933.041,778.617,939.157,779.7Z" transform="translate(-362.983 -296.063)" opacity="0.2"/>
  </g>
</svg>